. 
  
http://www.torrentday.com/        :     The Hottest Private Tracker On The Net!!!
 
http://www.torrentday.com          :     Once & For all ;)


               www . TorrentDay . Com 

(((((((((((((= Enjoy No RAR releases =))))))))))))))))))))


...................................NFO:....................................

.[img]http://img213.imageshack.us/img213/9366/letmein.jpg[/img]

Let Me In 2010 BDRip XVID AC3 HQ Hive-CM8



[b]Thx Hive

CM8 Doing It Right The First Time :D

Why download a touched up rip of a rip BRrip
Get the real deal BDRip
Enjoy

Source UK Bluray

Video: 720x304 @bitrate 1750 2pass
Audio: True HD AC3 640 to AC3 5.1 @448
Sample: yes included
Subs: yes in srt /subs[/b]
 
http://www.imdb.com/title/tt1228987/


General
Complete name                    : Let.Me.In.2010.BDRip.XVID.AC3.HQ.Hive-CM8.avi
Format                           : AVI
Format/Info                      : Audio Video Interleave
File size                        : 1.78 GiB
Duration                         : 1h 55mn
Overall bit rate                 : 2 203 Kbps
Writing application              : Nandub v1.0rc2
Writing library                  : Nandub build 1853/release

Video
ID                               : 0
Format                           : MPEG-4 Visual
Format profile                   : Advanced Simple@L5
Format settings, BVOP            : Yes
Format settings, QPel            : Yes
Format settings, GMC             : No warppoints
Format settings, Matrix          : Default (H.263)
Muxing mode                      : Packed bitstream
Codec ID                         : XVID
Codec ID/Hint                    : XviD
Duration                         : 1h 55mn
Bit rate                         : 1 746 Kbps
Width                            : 720 pixels
Height                           : 304 pixels
Display aspect ratio             : 2.40:1
Frame rate                       : 23.976 fps
Color space                      : YUV
Chroma subsampling               : 4:2:0
Bit depth                        : 8 bits
Scan type                        : Progressive
Bits/(Pixel*Frame)               : 0.333
Stream size                      : 1.41 GiB (79%)
Writing library                  : XviD 1.2.1 (UTC 2008-12-04)

Audio
ID                               : 1
Format                           : AC-3
Format/Info                      : Audio Coding 3
Mode extension                   : CM (complete main)
Codec ID                         : 2000
Duration                         : 1h 55mn
Bit rate mode                    : Constant
Bit rate                         : 448 Kbps
Channel(s)                       : 6 channels
Channel positions                : Front: L C R, Side: L R, LFE
Sampling rate                    : 48.0 KHz
Bit depth                        : 16 bits
Stream size                      : 371 MiB (20%)
Alignment                        : Split accross interleaves
Interleave, duration             : 42 ms (1.00 video frame)
Interleave, preload duration     : 500 ms



Kodi Smit-McPhee  ...  Owen  
Chloe Moretz  ...  Abby (as Chlo race Moretz)  
Richard Jenkins  ...  The Father  
Cara Buono  ...  Owen's Mother  
Elias Koteas  ...  The Policeman  
Sasha Barrese  ...  Virginia  
Dylan Kenin  ...  Larry  
Chris Browning  ...  Jack  
Ritchie Coster  ...  Mr. Zoric  
Dylan Minnette  ...  Kenny  
Jimmy 'Jax' Pinchak  ...  Mark  
Nicolai Dorian  ...  Donald  
Rebekah Wiggins  ...  Nurse  
Seth Adkins  ...  Seth  
Ashton Moio  ...  Lanky Kid  



A bullied young boy befriends a young female vampire who lives in secrecy with her guardian.
 


[img]http://img200.imageshack.us/img200/1315/79396111.png[/img]
[img]http://img407.imageshack.us/img407/2116/lele.png[/img]
[img]http://img248.imageshack.us/img248/9678/lellee.png[/img]
[img]http://img541.imageshack.us/img541/1375/lellleee.png[/img]
[img]http://img820.imageshack.us/img820/4933/lellleleleee.png[/img]
[img]http://img837.imageshack.us/img837/4388/lellleleee.png[/img]
[img]http://img28.imageshack.us/img28/7909/lelllelelelele.png[/img]
[img]http://img407.imageshack.us/img407/6232/lelllelelellelele.png[/img]





Greetz

iNK,LUSi,,MAGNET,CLASSiFiED,THC,LEGi0N,IMAGiNE,ViSiON,WBZ,FLAWL3SS,NOVA
Rapeseed,D2U,SAFC,goldadvance,MEMORY100,KaN1vE,Unevano,Pinnz,Wayne,Mr Hive
and all P2P groups 
Great Work Guys :D